<svg preserveAspectRatio="none" width="100%" height="100%" overflow="visible" style="display: block;" viewBox="0 0 87 16" fill="none" xmlns="http://www.w3.org/2000/svg">
<g id="Vector">
<path fill-rule="evenodd" clip-rule="evenodd" d="M53.6234 12.2885V0.974553C53.6248 0.544766 53.2868 0.186123 52.8681 0.184671H50.7156C50.297 0.186123 49.959 0.544766 49.9604 0.974553V15.8038H50.075C51.9333 15.7646 53.629 14.2023 53.6219 12.287L53.6234 12.2885Z" fill="var(--fill-0, white)"/>
<path fill-rule="evenodd" clip-rule="evenodd" d="M28.109 0.190478C28.5276 0.19193 28.8656 0.550573 28.8642 0.980361L28.8571 15.0139C28.8585 15.4437 28.5205 15.8023 28.1019 15.8038H26.0979C25.8518 15.8038 25.6354 15.676 25.4982 15.4858H25.494L18.7026 6.36582V12.287C18.7097 14.2023 17.1596 15.7646 15.3013 15.8038H15.1868V0.974553C15.1853 0.544766 15.5233 0.186123 15.942 0.184671H17.9474C18.2175 0.184671 18.5046 0.190478 18.7464 0.485233L21.9356 4.73668L25.3455 9.31484V0.980361C25.3441 0.550573 25.6821 0.19193 26.1007 0.190478H28.1133H28.109Z" fill="var(--fill-0, white)"/>
<path fill-rule="evenodd" clip-rule="evenodd" d="M58.4528 0.190478C58.0342 0.19193 57.6962 0.550573 57.6976 0.980361L57.706 15.0139C57.7047 15.4437 58.0427 15.8023 58.4613 15.8038H60.4653C60.7114 15.8038 60.9278 15.676 61.0663 15.4858H61.0706L67.8621 6.36582V12.287C67.8547 14.2023 69.4052 15.7646 71.263 15.8038H71.3778V0.974553C71.3792 0.544766 71.0415 0.186123 70.6228 0.184671H68.6171C68.347 0.184671 68.06 0.190478 67.8182 0.485233L64.6303 4.73668L61.2205 9.31484V0.980361C61.2219 0.550573 60.8839 0.19193 60.4653 0.190478H58.4528Z" fill="var(--fill-0, white)"/>
<path fill-rule="evenodd" clip-rule="evenodd" d="M46.9591 8.67743V7.22393C46.9563 6.79417 46.607 6.44714 46.1883 6.44859H39.6572V7.87158C39.6572 8.96637 40.5539 9.65606 41.4038 9.65606L43.8831 9.66767L43.8916 12.1593C43.0684 12.47 41.4943 12.666 40.1946 12.6718C37.5627 12.6834 35.5021 12.5716 35.4837 8.36525L35.4794 7.37348C35.4624 3.42699 37.7437 3.37617 40.4393 3.3631C41.1394 3.3602 41.9936 3.41102 43.002 3.51557C44.5535 3.67674 45.9536 2.55144 46.1728 0.96441L46.2025 0.753866C44.7727 0.335694 42.8365 -0.0113325 40.5213 0.000283401C34.1146 0.0293233 31.6227 3.46765 31.6425 7.98048C31.6623 12.6587 33.8983 16.0289 40.114 15.9998C42.3075 15.9896 44.3569 15.541 46.3227 14.6524C46.6904 14.4854 46.9577 14.1108 46.9549 13.6984V8.92862C46.9549 8.91555 46.9591 8.90393 46.9591 8.89087V8.67597V8.67743Z" fill="var(--fill-0, white)"/>
<path fill-rule="evenodd" clip-rule="evenodd" d="M1.21345 15.8169H9.83204C11.3778 15.8169 12.6309 14.5305 12.6309 12.9435H12.6281V12.5529H3.18919V9.65322H8.30467C9.85047 9.65322 11.1035 8.4263 11.1035 6.83927H11.1007V6.44868H3.18919V3.44741H9.83204C11.3778 3.44741 12.6309 2.16093 12.6309 0.573907H12.6281V0.18332H1.21345C0.543083 0.18332 0 0.745244 0 1.43349V14.5682C0 15.2565 0.543083 15.8169 1.21345 15.8169Z" fill="var(--fill-0, white)"/>
<path fill-rule="evenodd" clip-rule="evenodd" d="M75.5824 15.8169H84.2015C85.7473 15.8169 87 14.5305 87 12.9435H86.9973V12.5529H77.5584V9.65322H82.6739C84.2197 9.65322 85.4724 8.4263 85.4724 6.83927H85.4697V6.44868H77.5584V3.44741H84.2015C85.7473 3.44741 87 2.16093 87 0.573907H86.9973V0.18332H75.5824C74.9125 0.18332 74.3695 0.745244 74.3695 1.43349V14.5682C74.3695 15.2565 74.9125 15.8169 75.5824 15.8169Z" fill="var(--fill-0, white)"/>
</g>
</svg>
